<?xml version="1.0" encoding="UTF-8" standalone="no"?>
<svg
   width="667.89824"
   height="531.39369"
   viewBox="0 0 667.89824 531.39369"
   version="1.1"
   id="svg96"
   sodipodi:docname="opensource1.svg"
   xml:space="preserve"
   inkscape:version="1.2 (dc2aedaf03, 2022-05-15)"
   xmlns:inkscape="http://www.inkscape.org/namespaces/inkscape"
   xmlns:sodipodi="http://sodipodi.sourceforge.net/DTD/sodipodi-0.dtd"
   xmlns="http://www.w3.org/2000/svg"
   xmlns:svg="http://www.w3.org/2000/svg"><defs
     id="defs100" /><sodipodi:namedview
     id="namedview98"
     pagecolor="#ffffff"
     bordercolor="#000000"
     borderopacity="0.25"
     inkscape:showpageshadow="2"
     inkscape:pageopacity="0.0"
     inkscape:pagecheckerboard="0"
     inkscape:deskcolor="#d1d1d1"
     showgrid="false"
     inkscape:zoom="1.515627"
     inkscape:cx="245.11308"
     inkscape:cy="628.12288"
     inkscape:window-width="3840"
     inkscape:window-height="2054"
     inkscape:window-x="-11"
     inkscape:window-y="-11"
     inkscape:window-maximized="1"
     inkscape:current-layer="svg96" /><rect
     style="fill:#ffffff;stroke:#999999;stroke-width:0;stop-color:#000000"
     id="rect206"
     width="559.88397"
     height="356.08807"
     x="106.22666"
     y="128.39319"
     ry="9.0976095" /><polygon
     points="177.27478 122.14261 97.82164 111.55026 113.90043 30.12255 199.25237 46.97622 177.27478 122.14261"
     fill="#2f2e41"
     id="polygon2" /><path
     d="M100.89824,474.41435V138.49443c0-6.0874,4.95215-11.04004,11.04004-11.04004H656.8582c6.0874,0,11.04004,4.95264,11.04004,11.04004V474.41435c0,6.0874-4.95264,11.04004-11.04004,11.04004H111.93828c-6.08789,0-11.04004-4.95264-11.04004-11.04004ZM665.89824,138.49443c0-4.99268-4.04736-9.04004-9.04004-9.04004H111.93828c-4.99268,0-9.04004,4.04736-9.04004,9.04004V474.41435c0,4.99268,4.04736,9.04004,9.04004,9.04004H499.26438c92.02934,0,166.63386-74.60452,166.63386-166.63386V138.49443Z"
     fill="#3f3d56"
     id="path4" /><path
     d="M183.61978,302.61995H66.34496c9.8298-21.93448,15.87304-42.82434,6.42592-59.44071l110.8489-6.42599c-5.5394,22.43144-6.2165,44.44525,0,65.8667Z"
     fill="#ffb6b6"
     id="path26" /><path
     d="M224.00986,485.45439h-86.21598c-.62359,0-1.19236-.35629-1.46448-.91737l-.52506-1.08263-11.45719-23.51785c-.73767-1.5142-3.0078-1.04796-3.08896,.63441l-1.10388,22.88344-.02268,.45363c-.0433,.86625-.75827,1.54637-1.6256,1.54637H33.61971c-.85776,0-1.56884-.66712-1.62511-1.52303-.01048-.15948-.02067-.31851-.03028-.47697-5.41998-83.65002,14.07001-140.35004,25.5-165.72003l.01001-.01001c4.48999-9.97998,7.75-15.10999,7.75-15.10999l1.13-.01001h.01001l22.82996-.39996h.01001l20.22003-.34003,15.27997-.25,6.13-.10999h.01001l3.84003-.06,19.08997-.33002,17.04999-.28998,12.24005-.20001h.33997l1.82001,7.84998v.01001l.07001,.35004v.01001l.31,1.28998,.01001,.03998,.62,2.71002v.02002l.03998,.14996v.01001l.15002,.65002,.01001,.02997,1.44,6.22998,2.32996,10.13,3.07001,13.25,3.87,16.82001,1.96002,8.47003,2.69,11.66998,23.79999,103.14001h0c.24008,1.02157-.53506,2-1.58446,2Z"
     fill="#2f2e41"
     id="path28" /><path
     d="M166.68852,107.28386l-46.6709-1.62849-18.44831,24.73856-9.7071,2.10791c-14.55116,3.1598-24.53307,16.58027-23.37361,31.42535l4.40964,102.84751,2,12,110,18,24.73388-155.64774-32.54609-11.69246-10.39751-22.15064Z"
     fill="#1a8870"
     id="path30" /><circle
     cx="149.65671"
     cy="61.49005"
     r="41.8927"
     fill="#ffb6b6"
     id="circle32" /><g
     id="g54"><path
       d="M616.18463,481.56505l-36.31872-13.49725c-5.44735-2.02442-8.23214-8.10321-6.20769-13.55067l35.68052-96.00996c2.02442-5.44735,8.10321-8.23214,13.55056-6.20772l36.31872,13.49725c5.44725,2.02438,8.23203,8.10317,6.20762,13.55052-13.65214,38.80589-28.54458,82.40946-35.68052,96.00997-2.02446,5.44746-8.10325,8.23224-13.55049,6.20786Z"
       fill="#3f3d56"
       id="path34" /><path
       d="M656.46909,404.97193c-.2305-.08566-.48759,.03212-.57325,.26262l-4.97021,13.37395c-.08566,.2305,.03212,.48759,.26262,.57325s.48759-.03212,.57325-.26262l4.97021-13.37395c.08566-.2305-.03212-.48759-.26262-.57325Z"
       fill="#3f3d56"
       id="path36" /><path
       d="M664.47535,378.99786l-35.67988,96.00824c-1.76209,4.74148-6.89382,7.24846-11.67191,5.81524l-.00209-.00078c-.07052-.02145-.14102-.04289-.21285-.0672-.12562-.03956-.24969-.08328-.37506-.12988,0,0-.4473-.20429-1.26406-.57917-.82511-.37799-2.02516-.93099-3.51945-1.62663-.44861-.20716-.92075-.42781-1.41929-.66064-.99287-.46412-2.08295-.97388-3.24987-1.52646-.46587-.21832-.94691-.44703-1.43839-.67963-2.51228-1.18813-5.32196-2.52958-8.27724-3.96558-.50037-.24067-1.00415-.48496-1.51134-.73291-.13248-.06588-21.67089-14.86742-21.25464-15.9875l35.67988-96.00824c1.83509-4.9379,7.32401-7.45246,12.26193-5.61737l5.33704,1.98342c.85259,.31685,1.29104,1.23609,1.04812,2.11377-.01471,.05875-.0294,.1175-.03992,.1778-.163,.91215,.39931,1.79893,1.26861,2.12199l18.75941,6.97163c.8693,.32306,1.87426,.01873,2.34652-.77849,.03142-.05254,.05866-.10662,.0859-.16072,.38921-.82332,1.32157-1.23312,2.17417-.91627l5.33705,1.98343c4.9379,1.83509,7.45246,7.32401,5.61737,12.26191Z"
       fill="#1a8870"
       id="path38" /><path
       d="M603.40442,373.83554c-.2305-.08566-.48759,.03212-.57325,.26262l-1.24255,3.34349c-.08566,.2305,.03212,.48759,.26262,.57325s.48759-.03212,.57325-.26262l1.24255-3.34349c.08566-.2305-.03212-.48759-.26262-.57325Z"
       fill="#3f3d56"
       id="path40" /><path
       d="M599.67677,383.866c-.2305-.08566-.48759,.03212-.57325,.26262l-2.40744,6.47801c-.08566,.2305,.03212,.48759,.26262,.57325s.48759-.03212,.57325-.26262l2.40744-6.47801c.08566-.2305-.03212-.48759-.26262-.57325Z"
       fill="#3f3d56"
       id="path42" /><path
       d="M596.25975,393.06059c-.2305-.08566-.48759,.03212-.57325,.26262l-2.40744,6.47801c-.08566,.2305,.03212,.48759,.26262,.57325s.48759-.03212,.57325-.26262l2.40744-6.47801c.08566-.2305-.03212-.48759-.26262-.57325Z"
       fill="#3f3d56"
       id="path44" /><rect
       x="618.65109"
       y="355.11225"
       width="8.69434"
       height="1.11466"
       rx=".08614"
       ry=".08614"
       transform="translate(162.92241 -194.74653) rotate(20.38675)"
       fill="#e6e6e6"
       id="rect46" /><circle
       cx="654.21998"
       cy="366.91587"
       r=".89173"
       fill="#e6e6e6"
       id="circle48" /><circle
       cx="656.51863"
       cy="367.77013"
       r=".89173"
       fill="#e6e6e6"
       id="circle50" /><circle
       cx="658.81727"
       cy="368.62438"
       r=".89173"
       fill="#e6e6e6"
       id="circle52" /></g><g
     id="g72"><path
       d="M135.41246,116.42483c2.29554,4.32749,5.37816,7.77771,8.64644,10.00985l19.26405,42.60633,20.00564-9.75968-21.69542-42.16906c-.01513-3.95779-1.14294-8.44495-3.43848-12.77244-5.24414-9.88614-14.59531-15.19504-20.88646-11.85785-6.29115,3.33719-7.13991,14.05672-1.89579,23.94283l.00002,.00002Z"
       fill="#ffb6b6"
       id="path68" /><path
       d="M178.78963,143.2799s29.34127-15.37561,38.44501,.76875c7.7674,13.77452,13.37977,82.70112,14.86009,102.63982,.25983,3.49976-.65327,6.97551-2.5962,9.89799v.00002c-5.75394,8.65487-18.15819,9.47999-25.00778,1.6635l-59.45564-117.06693,28.20206-13.4031,6.89737,16.70483-1.34492-1.20489Z"
       fill="#1a8870"
       id="path70" /></g><path
     d="M241.52013,308.20187c.64418-.91274,1.02384-2.02553,1.02384-3.22764v-102.59386c0-3.09594-2.50975-5.60566-5.60566-5.60566H81.85817c-3.09592,0-5.60566,2.50973-5.60566,5.60566v102.59386c0,1.20211,.37965,2.3149,1.02383,3.22764h-19.36854v5.37802c67.3402,3.76631,135.00048,3.76631,202.98088,0v-5.37802h-19.36855Z"
     fill="#3f3d56"
     id="path74" /><g
     id="g92"><path
       d="M134.5386,294.62831c-4.89857,.02591-9.38514,1.15606-12.87879,3.01579l-46.68092-2.7008-.63535,22.25024,47.42155,.34406c3.51312,1.82273,8.01139,2.90535,12.90996,2.87945,11.19077-.05918,20.23205-5.88017,20.19437-13.00155-.03768-7.12138-9.14005-12.84637-20.33079-12.78719h-.00003Z"
       fill="#ffb6b6"
       id="path88" /><path
       d="M89.68917,132.57829s-39.68241-4.42168-49.79093,20.19641c-7.72191,18.80578-27.78296,92.1002-39.04032,134.06299-4.11574,15.34178,7.07334,30.53237,22.94515,31.16096l70.09517,2.77605,4.05432-31.00906-50.05432-7.99094,28-84,13.79093-65.19641Z"
       fill="#1a8870"
       id="path90" /></g><path
     d="M191.56027,29.14839c2.01449-10.20198-10.34929-14.16434-19.60836-18.89805l-7.86094-6.64878c-8.2413-4.21337-17.8775-4.75517-26.53916-1.49218l-27.03182,8.99811c-12.26987,4.62226-16.55126,15.62535-23.62176,26.66722l-11.85183,15.8224c-6.96029,10.86977-4.87941,27.83983-3.24718,40.64348l.68396,5.3652-6.51175,15.57165,50.04462,8.93446,10.08683-24.03093-6.29473-11.42158c-2.23346-4.05255-1.33972-9.11391,2.1466-12.15646l.00003-.00002c12.54082-10.94449,14.94346-29.72819,14.94346-29.72819l10.60165,9.3493c7.70458,2.89056,14.81705,4.38096,21.34709,4.49414,7.18186,.12447,13.65922-1.41696,19.44496-4.59378l1.01841,15.49073c-2.99055,18.31255-7.45406,22.33938-27.56367,36.34892l24.2032,24.13365,1.13429-9.82756c2.6983-23.3783,14.35607-39.64923,17.51203-58.45856,2.18226-13.00611-2.85552-26.17979-13.03592-34.56314h-.00001Z"
     fill="#2f2e41"
     id="path94" /><path
     id="path383"
     style="fill:#3f3d56;fill-opacity:1;stroke-width:1.20527"
     d="m 419.14569,185.74326 c -0.72918,0 -1.43511,0.5859 -1.56769,1.30422 l -5.66477,30.44481 c -0.13619,0.71716 -0.81024,1.4941 -1.50445,1.72314 l -20.40632,8.35224 c -0.65567,0.32296 -1.68797,0.25007 -2.28699,-0.16336 L 362.282,209.94893 c -0.60264,-0.41342 -1.51818,-0.33002 -2.03404,0.18706 l -21.42072,21.42072 c -0.51586,0.51833 -0.60168,1.4326 -0.18707,2.03404 l 17.14975,24.99611 c 0.4122,0.60507 0.47734,1.62566 0.14228,2.27644 l -9.02411,21.04922 c -0.23986,0.69058 -1.02204,1.36283 -1.74158,1.49654 l -29.43306,5.47506 c -0.71955,0.13618 -1.30422,0.83997 -1.30422,1.57033 v 30.29463 c 0,0.73045 0.58709,1.44164 1.30422,1.57296 l 28.71113,5.34332 c 0.71834,0.13018 1.48533,0.81042 1.70469,1.5071 l 8.96351,22.3903 c 0.3206,0.65691 0.246,1.68555 -0.16862,2.28699 L 338.6349,377.6154 c -0.4122,0.6026 -0.32879,1.51836 0.18707,2.03669 l 21.42334,21.41807 c 0.51466,0.5147 1.43143,0.60075 2.03406,0.18971 l 23.34673,-16.02205 c 0.60023,-0.41219 1.60897,-0.44585 2.23692,-0.0791 l 10.29406,5.49614 c 0.65086,0.33386 1.41193,0.053 1.69152,-0.62181 l 21.22838,-51.29113 c 0.28083,-0.67491 0.001,-1.53722 -0.6218,-1.91813 l -2.57681,-1.57822 c -0.47608,-0.2892 -1.12352,-0.78964 -1.63092,-1.24889 -9.29382,-5.95159 -15.46086,-16.36103 -15.46086,-28.21843 0,-18.50329 15.00294,-33.50379 33.50379,-33.50379 18.50082,0 33.50114,15.0005 33.50114,33.50379 0,11.8574 -6.16463,22.26684 -15.46085,28.21843 -0.50259,0.45801 -1.15343,0.95845 -1.62829,1.24889 l -2.57682,1.57822 c -0.61949,0.38091 -0.90021,1.24051 -0.62179,1.91549 l 21.22573,51.29642 c 0.27964,0.67497 1.04089,0.95326 1.69416,0.6218 l 10.29406,-5.49613 c 0.63035,-0.36762 1.63815,-0.33696 2.23957,0.0763 l 23.34408,16.02469 c 0.60262,0.40979 1.52062,0.32631 2.03406,-0.18707 l 21.42335,-21.42071 c 0.51827,-0.51825 0.60167,-1.434 0.18706,-2.03668 l -16.30661,-23.76303 c -0.4122,-0.60267 -0.48802,-1.63007 -0.16863,-2.28698 l 8.9635,-22.3903 c 0.22057,-0.69668 0.98252,-1.37834 1.70207,-1.50974 l 28.71113,-5.34331 c 0.71593,-0.13018 1.30684,-0.84252 1.30684,-1.57297 l 0.003,-30.292 c 0.003,-0.73284 -0.58564,-1.43676 -1.30157,-1.57295 v -0.003 l -29.43569,-5.47505 c -0.71593,-0.13261 -1.49934,-0.80597 -1.74159,-1.49655 l -9.0241,-21.04921 c -0.33627,-0.65079 -0.27091,-1.67138 0.14491,-2.27645 l 17.14974,-24.9961 c 0.40978,-0.60022 0.32738,-1.51572 -0.18969,-2.03405 l -21.41809,-21.41807 c -0.51826,-0.51709 -1.43262,-0.60313 -2.03404,-0.18971 l -25.43348,17.45539 c -0.60262,0.41343 -1.6311,0.48639 -2.28434,0.16335 l -20.40633,-8.35224 c -0.69303,-0.22895 -1.36826,-1.00482 -1.50445,-1.72314 l -5.6674,-30.44218 c -0.13261,-0.71956 -0.83994,-1.30685 -1.57034,-1.30685 z"
     sodipodi:nodetypes="sccccccccccccccsscccccccccccccccccssscccccccccsccccccccccccccccccccccccss" /></svg>
