<?xml version="1.0" encoding="UTF-8"?>
<!DOCTYPE svg PUBLIC "-//W3C//DTD SVG 1.1//EN" "http://www.w3.org/Graphics/SVG/1.1/DTD/svg11.dtd">
<!-- Creator: CorelDRAW 2021 (64-Bit) -->
<svg xmlns="http://www.w3.org/2000/svg" xml:space="preserve" width="33.8163mm" height="27.9224mm" version="1.1" style="shape-rendering:geometricPrecision; text-rendering:geometricPrecision; image-rendering:optimizeQuality; fill-rule:evenodd; clip-rule:evenodd"
viewBox="0 0 3381.64 2792.25"
 xmlns:xlink="http://www.w3.org/1999/xlink"
 xmlns:xodm="http://www.corel.com/coreldraw/odm/2003">
 <defs>
  <style type="text/css">
   <![CDATA[
    .fil0 {fill:#FEFEFE}
   ]]>
  </style>
 </defs>
 <g id="Layer_x0020_1">
  <metadata id="CorelCorpID_0Corel-Layer"/>
  <g id="_2099740227184">
   <path class="fil0" d="M1451.92 2079.12c0,-26.72 29.5,-31.38 51.48,-31.38l140.62 0c19.4,0 55.25,1.94 55.25,27.62 0,11.12 -0.28,18.27 -13.52,26.66 -6.67,4.21 -16.27,5.98 -26.66,5.98l-159.45 0c-11.98,0 -23.75,-1.41 -32.05,-5.62 -7.3,-3.7 -15.67,-12.91 -15.67,-23.26zm-449.44 -2079.12l32.62 0 38.84 0c6.19,0.62 11.74,1.87 15.92,4.24 11.94,6.78 20.7,18.68 20.6,37.16 -0.41,77.15 1.23,155.65 1.23,232.31l0.01 175.77c0.05,10.57 -1.27,16.58 -1.3,27.64 -0.01,5.61 0.21,9.4 1.3,13.77l69.28 120.3c29.28,48.7 56.89,98.71 85.85,147.67l159.92 278.25c3.62,6.31 6.64,11.93 10.51,18.38l106.72 184.54c2.15,3.88 3.02,5.93 5.32,9.75l250.35 433.9c1.94,3.37 3.18,6.27 5.31,9.77l58.78 101.92c20.2,37.37 42.78,73.75 63.96,110.55 28.52,49.55 55.85,99.22 85.37,148.16l42.7 74.06c34.47,59.3 8.11,127.93 -58.9,144.36 -21.46,5.27 -85.65,2.47 -114.31,2.47 -38.91,0 -77.83,0 -116.75,0 -21.61,0 -99.34,2.07 -114.25,-1.23l-149.41 -0.03c-155.63,0.69 -311.41,0.01 -467.05,0.01 -156.24,0 -308.66,1.25 -465.04,1.25 -4.2,-2.94 -140.49,-4.29 -148.12,-1.25 -6.82,0 -7.54,-1.22 -14.55,-1.32 -33.15,-0.4 -68.06,1.33 -100.48,1.32 -38.93,-0.01 -77.84,0 -116.76,0 -31.69,0 -89.2,2.77 -114.63,-2.14 -30.66,-5.9 -52.54,-24.76 -65.75,-51.02 -24.92,-49.47 2.9,-90.35 26.96,-130.39l106.72 -184.56c29.27,-48.68 57.29,-98.88 85.55,-147.97l128.19 -222.1c7.05,-12.3 14.68,-24.39 21.72,-37.29l74.67 -128.72c3.78,-6.26 6.71,-12.12 10.49,-18.38l133.89 -231.47c31.23,-51.6 59.44,-105.19 90.55,-156.78 3.69,-6.13 6.94,-11.73 10.55,-18.33 20.54,-37.61 43.88,-73.74 64.42,-111.35l74.91 -129.75c3.88,-6.46 6.81,-11.7 10.52,-18.35l10.66 -18.21c2.07,-3.44 3.32,-5.99 5.49,-9.57l80.04 -138.43c12.28,-20.49 14.67,-18.24 14.67,-44.33l0 -320.16c0,-24.3 -1.74,-95.85 0.19,-114.04 3.37,-31.67 20.95,-38.97 42.52,-40.38zm-532.35 2176.97c-4.89,-7.99 -2.16,-59.95 -2,-73.14 -14.34,0.15 -64.89,2.95 -74.37,-2.1 -8.49,-3.7 -6.66,0.91 -14.4,-7.17 -11.93,-12.42 -9.23,-34.87 7.02,-42.68 12.5,-6.02 63.12,-2.89 82.49,-2.89l0.96 -28.49c-1.4,-10.25 -2.92,-47.98 3.81,-57.14 8.07,-10.97 22.46,-14.16 33.31,-8.95 13.72,6.61 14.68,16.96 14.65,31.8 -0.02,8.99 -2.35,58.2 1.11,61.66 3.43,3.42 51.57,1.14 60.41,1.12 13.57,-0.03 17.43,-0.72 25.72,5.68 5.36,4.14 10.59,11.93 10.78,20.7 0.22,9.46 -4.74,17.37 -10.31,21.16 -15.91,10.83 -67.11,6.45 -87.71,6.45 0,14.87 1.22,25.91 1.26,41.43 0.01,8.93 -1.13,34.55 -3.4,40.55 -3.05,8.09 -15.52,16.42 -27.48,14.27 -12.33,-2.22 -21.85,-8.35 -21.85,-22.26zm672.95 -569.92l-27.89 14.82c-22.63,12.34 -59.16,22.1 -85.19,24.04 -51.15,3.79 -92.43,-4.18 -132.46,-35.63 -4,-3.13 -8.13,-7.01 -11.84,-9.5 -3.5,7.3 -7.84,34.53 -9.72,44.26 -3.02,15.68 -5.82,31.61 -8.81,46.44 -6.28,31.29 -12.4,60.36 -18.6,91.87 -5.81,29.4 -21.81,51.96 -52.35,56.89 -34.72,5.6 -59.93,-13.42 -59.93,-47.37 0,-16.81 3.51,-31.67 6.59,-46.16 2.88,-13.56 6.59,-29.14 9.42,-43.3 5.93,-29.64 11.82,-59.08 17.58,-87.88l79.1 -395.48c2.97,-14.93 5.5,-29.29 9.34,-43.39 4.34,-15.86 8.33,-23.17 19.53,-33.21 21.79,-19.53 61.61,-21.79 83.21,7.83 15.79,21.63 -1,75.75 -5.17,96.6 -6.17,30.95 -36.29,168.49 -36.29,193.45 0,48.2 26.65,82.88 68.52,93.43 8.48,2.14 13.19,2.97 23.14,3.23 6.3,0.16 6.68,1.55 12.44,1.24 4.72,-0.25 6.1,-1.21 12.66,-1.22 27.7,-0.08 59.49,-12.64 81.37,-26.62 55.22,-35.3 56.94,-84.3 69.6,-147.59l26.78 -135.17c7.7,-38.46 8.61,-76.13 42.76,-92.86 19.79,-9.69 51.42,-8.06 65.4,8.34 20.06,23.51 12.24,47.41 6.73,73.84l-64.66 322.04c-9.63,48.16 -11.58,96.37 -70.31,101.71 -11.45,1.05 -25.34,-3.98 -32.67,-8.99 -11.04,-7.53 -12.28,-14.32 -18.28,-25.66z"/>
   <path class="fil0" d="M2849.32 1457.64c-29.28,0 -52.04,3.85 -70.04,-15.35 -9.22,-9.84 -10.32,-28.71 -10.32,-47.43l0 -215.95c0,-46.36 29.16,-50.21 66.55,-50.21 58.06,0 102.03,0.83 145.83,36.21 58.1,46.93 73.34,139.71 41.65,202.75 -20.98,41.72 -47.86,66.86 -93.78,81.99 -20.39,6.72 -53.13,7.99 -79.89,7.99zm532.32 315.43l0 29.5c-0.34,6.89 -0.92,12.51 -1.76,14.89 -1.5,4.25 -3.62,6.74 -6.25,10.07 -2.54,3.22 -5.1,4.86 -8.33,6.73 -14.54,8.43 -34.08,6.31 -56.47,6.31 -125.14,0 -250.26,0 -375.4,0l0 878.85c0,24.54 5.06,60.86 -24.06,70.1 -7.31,2.32 -50.42,2.48 -58.28,-0.32 -8.02,-2.84 -13.03,-8.07 -16.81,-14.56 -5.15,-8.87 -5.09,-12.73 -5.05,-26.35l0 -907.72c-126.39,0 -252.78,0 -379.17,0 -21.37,0 -42.54,1.62 -55.46,-7.31 -6.34,-4.36 -10.97,-10.49 -13.37,-18.03 -2.36,-7.39 -3.25,-48.83 1.82,-59.26 13.22,-27.26 44.16,-19.59 72.04,-19.61l376.65 0c-0.51,-6.09 -32.96,-55.54 -36.95,-62.23l-75.32 -123.05c-36.36,-59.1 -78.23,-125.27 -113.32,-184.24 -6.36,-10.68 -13,-20.78 -19.18,-31.04l-169.5 -274.96c-16.1,-27.85 -6.98,-54.77 19.55,-61.94 21.5,-5.84 69.74,-2.03 94.66,-2.03l296.29 0.02c21.56,0.43 88.04,3.83 104.21,-0.97 13.29,-1.26 180.26,-0.3 198.37,-0.3 29.37,0 179.53,-2.35 195.64,2.73 10.81,3.4 22.17,13.34 25.41,24.8 4.91,17.42 -2.77,27.73 -8.81,37.82 -12.45,20.82 -24.92,40.81 -37.49,61.69l-374.38 613.7c125.55,0 251.1,0 376.65,0 27.74,0 62.13,-6.8 72.31,21.86 0.84,2.38 1.42,7.98 1.76,14.85z"/>
   <path class="fil0" d="M2827.97 996.89c21.56,0.43 88.04,3.83 104.21,-0.97 0,-44.7 1.25,-85.37 1.25,-129.62 0,-43.95 0,-87.89 0,-131.83 0,-44.1 -1.25,-84.71 -1.25,-129.32l0 -524.8c0,-25.09 7.14,-67.26 -20.2,-77.73 -4.6,-1.76 -9.45,-2.41 -14.7,-2.62l-16.01 0 -0.57 0 -1.25 0 -4.77 0c-22.55,0.04 -32.19,0.9 -41.69,17.58 -7.43,13.07 -5.02,39.96 -5.02,60.26l0 919.05z"/>
   <path class="fil0" d="M1651.56 2273.75l-149.41 -0.03c-3.12,6.54 -1.25,264.81 -1.25,295.05 0,49.38 0,98.77 0,148.15 0,27.75 -2.86,47.82 11.57,62.49 8.82,8.99 17.62,11.97 28.79,12.84l33.01 0 0.7 0 0.64 0 34.86 0c10.82,-0.85 19.94,-3.5 27.77,-10.81l7.93 -9.64c2.67,-4.86 3.27,-8.07 4.5,-14.34 2.37,-12.17 0.89,-455.42 0.89,-483.71z"/>
   <path class="fil0" d="M570.06 2274.98c-4.2,-2.94 -140.49,-4.29 -148.12,-1.25 -2.15,8.86 -0.78,128.36 -0.78,148.14l-0.05 331.51c0.09,11.86 4.96,20.43 10.99,26.67 8.14,8.45 17.36,11.33 28.67,12.2l33.79 0 0.68 0 1.3 0 30.88 0c12.11,-0.69 22.18,-3.19 30.92,-10.97 15.39,-13.68 12.22,-34.2 12.22,-61.85 0,-37.36 -1.25,-392.57 0.91,-408.38 1.05,-7.56 -0.23,-28.47 -1.41,-36.07z"/>
   <path class="fil0" d="M3129.29 670.43l0 69.06 -71.56 0c-27.55,0 -33.4,39.04 -13.35,51.01 14.41,8.6 63.78,5.5 84.91,5.5l0 67.79c0,39.13 55.24,34.91 55.24,1.25l0 -69.04c22.45,0 70.02,3.35 85.37,-6.3 13.57,-8.52 16.75,-26.94 4.71,-41.1 -3.65,-4.3 -12.25,-9.11 -19.77,-9.11l-70.31 0 0 -70.31c0,-34.45 -55.24,-36.56 -55.24,1.25z"/>
   <path class="fil0" d="M2853.08 1378.54c32.94,0 50.94,0.79 77.13,-19.54 11.18,-8.67 25.82,-30.54 25.82,-49.51 0,-30.16 2.05,-55.77 -24.15,-80.06 -23.85,-22.11 -48.59,-20.38 -78.8,-20.38l0 169.49z"/>
   <path class="fil0" d="M3032.61 2000.02c0,21.21 13.27,33.9 32.65,33.9l185.81 0c35.06,0 49.14,-61.52 -11.29,-61.52l-164.47 0c-19.53,0 -42.7,9.06 -42.7,27.62z"/>
   <path class="fil0" d="M470.13 2176.97c0,-19.16 2.27,-58.81 -1.26,-73.99 -15.36,-3.58 -55.72,-1.25 -75.11,-1.25 9.48,5.05 60.03,2.25 74.37,2.1 -0.16,13.19 -2.89,65.15 2,73.14z"/>
  </g>
 </g>
</svg>
