<?xml version="1.0" encoding="UTF-8" standalone="no"?>
<!-- Creator: CorelDRAW 2021 (64-Bit) -->

<svg
   xml:space="preserve"
   width="43.18mm"
   height="35.56mm"
   version="1.1"
   style="shape-rendering:geometricPrecision; text-rendering:geometricPrecision; image-rendering:optimizeQuality; fill-rule:evenodd; clip-rule:evenodd"
   viewBox="0 0 4318 3556"
   id="svg9"
   sodipodi:docname="UDL_Logo_White_Sq_Bg.svg"
   inkscape:version="1.3 (0e150ed6c4, 2023-07-21)"
   xmlns:inkscape="http://www.inkscape.org/namespaces/inkscape"
   xmlns:sodipodi="http://sodipodi.sourceforge.net/DTD/sodipodi-0.dtd"
   xmlns="http://www.w3.org/2000/svg"
   xmlns:svg="http://www.w3.org/2000/svg"><sodipodi:namedview
   id="namedview9"
   pagecolor="#ffffff"
   bordercolor="#000000"
   borderopacity="0.25"
   inkscape:showpageshadow="2"
   inkscape:pageopacity="0.0"
   inkscape:pagecheckerboard="0"
   inkscape:deskcolor="#d1d1d1"
   inkscape:document-units="mm"
   inkscape:zoom="2.3590686"
   inkscape:cx="81.388053"
   inkscape:cy="169.13455"
   inkscape:window-width="1920"
   inkscape:window-height="1052"
   inkscape:window-x="0"
   inkscape:window-y="0"
   inkscape:window-maximized="1"
   inkscape:current-layer="Layer_x0020_1" />&#10; <defs
   id="defs1">&#10;  <style
   type="text/css"
   id="style1">&#10;   <![CDATA[
    .fil0 {fill:#FEFEFE}
    .fil1 {fill:#0F0F0F}
    .fil4 {fill:#B3B3B3}
    .fil3 {fill:#F4BF02}
    .fil2 {fill:#FE5353}
   ]]>&#10;  </style>&#10; </defs>&#10; <g
   id="Layer_x0020_1"
   inkscape:label="Layer 1">&#10;  <metadata
   id="CorelCorpID_0Corel-Layer" />&#10;  <rect
   class="fil0"
   y="0"
   width="4318"
   height="3555.99"
   rx="505.12"
   ry="424.6"
   id="rect1" />&#10;  <g
   id="_2133271243040"
   transform="matrix(0.87740528,0,0,0.87740528,264.67722,217.97344)">&#10;   <path
   class="fil1"
   d="m 1876.23,2586.47 c 0,-31.64 34.91,-37.16 60.93,-37.16 h 166.46 c 22.96,0 65.39,2.3 65.39,32.7 0,13.17 -0.33,21.62 -16,31.56 -7.9,4.99 -19.25,7.07 -31.56,7.07 H 1932.7 c -14.17,0 -28.1,-1.66 -37.93,-6.64 -8.64,-4.39 -18.54,-15.28 -18.54,-27.53 z M 1344.21,125.4 h 38.62 45.97 c 7.33,0.73 13.9,2.21 18.85,5.01 14.13,8.03 24.5,22.12 24.39,43.99 -0.49,91.33 1.45,184.24 1.45,274.99 l 0.01,208.06 c 0.06,12.51 -1.51,19.63 -1.54,32.71 -0.01,6.65 0.25,11.13 1.54,16.31 l 82,142.4 c 34.67,57.65 67.35,116.84 101.63,174.8 l 189.3,329.36 c 4.29,7.48 7.85,14.12 12.44,21.76 l 126.33,218.45 c 2.55,4.59 3.57,7.02 6.3,11.53 l 296.33,513.62 c 2.31,3.99 3.77,7.42 6.29,11.56 l 69.57,120.65 c 23.92,44.23 50.65,87.29 75.72,130.86 33.76,58.65 66.11,117.44 101.05,175.37 l 50.54,87.67 c 40.81,70.19 9.61,151.43 -69.72,170.88 -25.39,6.24 -101.38,2.92 -135.3,2.92 -46.07,0 -92.14,0 -138.2,0 -25.58,0 -117.59,2.46 -135.25,-1.45 l -176.85,-0.04 c -184.22,0.82 -368.62,0.01 -552.85,0.01 -184.95,0 -365.37,1.48 -550.47,1.48 -4.98,-3.48 -166.3,-5.07 -175.33,-1.48 -8.08,0 -8.93,-1.44 -17.23,-1.55 -39.24,-0.48 -80.56,1.57 -118.93,1.55 -46.09,-0.01 -92.15,0 -138.22,0 -37.52,0 -105.58,3.28 -135.69,-2.53 -36.29,-6.99 -62.19,-29.3 -77.83,-60.39 -29.49,-58.56 3.44,-106.95 31.92,-154.35 l 126.33,-218.46 c 34.63,-57.62 67.8,-117.04 101.26,-175.16 l 151.74,-262.89 c 8.34,-14.57 17.38,-28.88 25.71,-44.15 l 88.38,-152.36 c 4.49,-7.41 7.95,-14.35 12.42,-21.76 l 158.5,-273.99 c 36.96,-61.08 70.35,-124.52 107.17,-185.58 4.37,-7.26 8.23,-13.89 12.5,-21.7 24.31,-44.53 51.93,-87.29 76.25,-131.81 l 88.67,-153.58 c 4.6,-7.65 8.06,-13.85 12.45,-21.73 l 12.62,-21.56 c 2.45,-4.06 3.93,-7.08 6.5,-11.32 l 94.74,-163.86 c 14.54,-24.26 17.37,-21.6 17.37,-52.48 V 308.19 c 0,-28.77 -2.06,-113.46 0.23,-135 3.98,-37.48 24.79,-46.12 50.32,-47.79 z M 714.07,2702.28 c -5.8,-9.44 -2.56,-70.95 -2.37,-86.57 -16.97,0.17 -76.81,3.5 -88.03,-2.49 -10.05,-4.37 -7.89,1.08 -17.05,-8.48 -14.12,-14.71 -10.93,-41.28 8.31,-50.52 14.8,-7.12 74.72,-3.43 97.64,-3.43 l 1.14,-33.71 c -1.65,-12.14 -3.45,-56.8 4.51,-67.64 9.55,-12.98 26.59,-16.76 39.43,-10.6 16.25,7.82 17.38,20.08 17.34,37.65 -0.02,10.64 -2.78,68.88 1.32,72.98 4.06,4.06 61.04,1.35 71.51,1.32 16.06,-0.03 20.63,-0.85 30.43,6.73 6.36,4.91 12.54,14.12 12.77,24.5 0.26,11.2 -5.61,20.56 -12.2,25.05 -18.84,12.83 -79.45,7.63 -103.83,7.63 0,17.6 1.45,30.67 1.49,49.05 0.02,10.57 -1.33,40.89 -4.02,47.99 -3.61,9.58 -18.38,19.44 -32.52,16.9 -14.6,-2.63 -25.87,-9.88 -25.87,-26.36 z m 796.57,-674.61 -33.01,17.54 c -26.79,14.61 -70.02,26.17 -100.83,28.45 -60.55,4.49 -109.42,-4.94 -156.8,-42.17 -4.73,-3.71 -9.62,-8.3 -14.02,-11.24 -4.14,8.64 -9.27,40.87 -11.5,52.39 -3.58,18.56 -6.89,37.41 -10.43,54.97 -7.43,37.04 -14.68,71.45 -22.02,108.74 -6.88,34.81 -25.81,61.51 -61.96,67.35 -41.11,6.63 -70.94,-15.89 -70.94,-56.07 0,-19.9 4.15,-37.49 7.79,-54.64 3.41,-16.06 7.81,-34.5 11.16,-51.26 7.01,-35.08 13.99,-69.94 20.8,-104.03 l 93.63,-468.13 c 3.53,-17.67 6.52,-34.66 11.06,-51.36 5.13,-18.77 9.87,-27.43 23.12,-39.31 25.8,-23.12 72.93,-25.79 98.49,9.26 18.69,25.61 -1.18,89.68 -6.11,114.35 -7.3,36.64 -42.96,199.45 -42.96,228.99 0,57.06 31.55,98.11 81.11,110.6 10.03,2.53 15.61,3.51 27.39,3.82 7.46,0.19 7.91,1.83 14.72,1.47 5.6,-0.3 7.22,-1.44 14.98,-1.45 32.8,-0.09 70.43,-14.95 96.33,-31.5 65.36,-41.79 67.4,-99.79 82.38,-174.71 l 31.71,-160.01 c 9.11,-45.52 10.19,-90.11 50.61,-109.91 23.42,-11.47 60.86,-9.54 77.41,9.87 23.75,27.83 14.5,56.12 7.97,87.4 l -76.54,381.2 c -11.4,57.01 -13.7,114.08 -83.22,120.41 -13.56,1.23 -29.99,-4.72 -38.68,-10.64 -13.07,-8.92 -14.53,-16.95 -21.64,-30.38 z"
   id="path1" />&#10;   <path
   class="fil1"
   d="m 3530.32,1850.83 c -34.65,0 -61.59,4.55 -82.9,-18.18 -10.91,-11.64 -12.21,-33.99 -12.21,-56.14 v -255.62 c 0,-54.88 34.51,-59.44 78.77,-59.44 68.73,0 120.77,0.99 172.62,42.86 68.77,55.56 86.82,165.38 49.31,240 -24.84,49.39 -56.65,79.14 -111.02,97.06 -24.13,7.95 -62.89,9.46 -94.57,9.46 z m 630.12,373.37 v 34.92 c -0.4,8.16 -1.09,14.8 -2.08,17.62 -1.77,5.03 -4.29,7.98 -7.39,11.92 -3.01,3.81 -6.04,5.75 -9.87,7.97 -17.21,9.98 -40.34,7.47 -66.84,7.47 -148.13,0 -296.24,0 -444.36,0 v 1040.31 c 0,29.04 5.98,72.03 -28.49,82.97 -8.65,2.75 -59.68,2.94 -68.99,-0.37 -9.49,-3.36 -15.42,-9.56 -19.9,-17.24 -6.09,-10.5 -6.02,-15.07 -5.98,-31.19 V 2304.1 c -149.6,0 -299.21,0 -448.82,0 -25.29,0 -50.35,1.92 -65.65,-8.65 -7.5,-5.16 -12.98,-12.42 -15.83,-21.34 -2.79,-8.75 -3.84,-57.8 2.16,-70.15 15.66,-32.27 52.28,-23.19 85.28,-23.21 h 445.84 c -0.6,-7.22 -39.01,-65.75 -43.74,-73.67 l -89.16,-145.65 c -43.03,-69.95 -92.6,-148.29 -134.13,-218.09 -7.53,-12.64 -15.39,-24.59 -22.71,-36.74 l -200.63,-325.47 c -19.07,-32.97 -8.27,-64.83 23.13,-73.33 25.45,-6.9 82.56,-2.4 112.05,-2.4 l 350.73,0.03 c 25.52,0.5 104.22,4.53 123.35,-1.15 15.73,-1.5 213.38,-0.36 234.82,-0.36 34.76,0 212.51,-2.78 231.57,3.23 12.8,4.03 26.24,15.79 30.08,29.36 5.81,20.62 -3.28,32.83 -10.42,44.76 -14.74,24.65 -29.51,48.31 -44.39,73.03 l -443.15,726.45 c 148.61,0 297.23,0 445.84,0 32.84,0 73.55,-8.05 85.6,25.87 0.99,2.82 1.68,9.45 2.08,17.58 z"
   id="path2" />&#10;   <path
   class="fil2"
   d="m 3505.06,1305.43 c 25.52,0.5 104.22,4.53 123.35,-1.15 0,-52.92 1.49,-101.05 1.49,-153.43 0,-52.02 0,-104.05 0,-156.05 0,-52.21 -1.49,-100.28 -1.49,-153.07 V 220.51 c 0,-29.71 8.46,-79.61 -23.91,-92.01 -5.45,-2.08 -11.18,-2.86 -17.4,-3.1 h -18.95 -0.67 -1.48 -5.65 c -26.69,0.04 -38.11,1.06 -49.35,20.8 -8.8,15.47 -5.94,47.31 -5.94,71.33 z"
   id="path3" />&#10;   <path
   class="fil3"
   d="m 2112.53,2816.85 -176.85,-0.04 c -3.7,7.75 -1.48,313.46 -1.48,349.26 0,58.45 0,116.91 0,175.36 0,32.85 -3.38,56.61 13.7,73.98 10.44,10.64 20.85,14.16 34.08,15.19 h 39.07 0.83 0.76 41.27 c 12.79,-1 23.59,-4.14 32.87,-12.79 l 9.38,-11.42 c 3.15,-5.75 3.87,-9.55 5.33,-16.97 2.8,-14.4 1.04,-539.08 1.04,-572.57 z"
   id="path4" />&#10;   <path
   class="fil3"
   d="m 832.36,2818.3 c -4.98,-3.48 -166.3,-5.07 -175.33,-1.48 -2.55,10.5 -0.93,151.95 -0.93,175.36 l -0.06,392.41 c 0.11,14.04 5.88,24.19 13.01,31.58 9.63,9.99 20.55,13.4 33.93,14.43 h 40 0.81 1.54 36.55 c 14.33,-0.82 26.25,-3.78 36.6,-12.98 18.22,-16.19 14.47,-40.49 14.47,-73.21 0,-44.23 -1.48,-464.7 1.08,-483.4 1.23,-8.96 -0.28,-33.71 -1.67,-42.71 z"
   id="path5" />&#10;   <path
   class="fil2"
   d="m 3861.73,919 v 81.74 h -84.7 c -32.61,0 -39.54,46.21 -15.8,60.39 17.05,10.18 75.5,6.5 100.5,6.5 v 80.24 c 0,46.33 65.39,41.32 65.39,1.48 v -81.72 c 26.57,0 82.88,3.96 101.06,-7.45 16.05,-10.1 19.82,-31.89 5.57,-48.66 -4.32,-5.09 -14.5,-10.78 -23.4,-10.78 h -83.23 v -83.23 c 0,-40.77 -65.39,-43.27 -65.39,1.49 z"
   id="path6" />&#10;   <path
   class="fil1"
   d="m 3534.78,1757.2 c 39,0 60.3,0.93 91.3,-23.14 13.23,-10.27 30.56,-36.15 30.56,-58.61 0,-35.7 2.43,-66.01 -28.59,-94.76 -28.22,-26.17 -57.51,-24.13 -93.27,-24.13 z"
   id="path7" />&#10;   <path
   class="fil1"
   d="m 3747.29,2492.83 c 0,25.11 15.71,40.13 38.65,40.13 h 219.95 c 41.49,0 58.16,-72.82 -13.37,-72.82 h -194.69 c -23.12,0 -50.54,10.72 -50.54,32.69 z"
   id="path8" />&#10;   <path
   class="fil4"
   d="m 714.07,2702.28 c 0,-22.67 2.69,-69.6 -1.5,-87.58 -18.17,-4.24 -65.95,-1.48 -88.9,-1.48 11.22,5.99 71.06,2.66 88.03,2.49 -0.19,15.62 -3.43,77.13 2.37,86.57 z"
   id="path9" />&#10;  </g>&#10; </g>&#10;</svg>
