<?xml version="1.0" encoding="UTF-8" standalone="no"?>
<!-- Creator: CorelDRAW 2021 (64-Bit) -->

<svg
   xml:space="preserve"
   width="16.8517mm"
   height="13.9146mm"
   version="1.1"
   style="clip-rule:evenodd;fill-rule:evenodd;image-rendering:optimizeQuality;shape-rendering:geometricPrecision;text-rendering:geometricPrecision"
   viewBox="0 0 1685.17 1391.4601"
   id="svg9"
   sodipodi:docname="logo_black.svg"
   inkscape:version="1.3 (0e150ed6c4, 2023-07-21)"
   xmlns:inkscape="http://www.inkscape.org/namespaces/inkscape"
   xmlns:sodipodi="http://sodipodi.sourceforge.net/DTD/sodipodi-0.dtd"
   xmlns="http://www.w3.org/2000/svg"
   xmlns:svg="http://www.w3.org/2000/svg"><sodipodi:namedview
   id="namedview9"
   pagecolor="#ffffff"
   bordercolor="#000000"
   borderopacity="0.25"
   inkscape:showpageshadow="2"
   inkscape:pageopacity="0.0"
   inkscape:pagecheckerboard="0"
   inkscape:deskcolor="#d1d1d1"
   inkscape:document-units="mm"
   inkscape:zoom="3.0520834"
   inkscape:cx="42.430033"
   inkscape:cy="61.597268"
   inkscape:window-width="1536"
   inkscape:window-height="790"
   inkscape:window-x="0"
   inkscape:window-y="0"
   inkscape:window-maximized="1"
   inkscape:current-layer="Layer_x0020_1" />&#10; <defs
   id="defs1">&#10;  <style
   type="text/css"
   id="style1">&#10;   <![CDATA[
    .fil0 {fill:#FEFEFE}
    .fil1 {fill:black}
   ]]>&#10;  </style>&#10; </defs>&#10; <g
   id="Layer_x0020_1"
   inkscape:label="Layer 1"
   inkscape:groupmode="layer"
   transform="translate(-390.78998,-566.72)">&#10;  <metadata
   id="CorelCorpID_0Corel-Layer" />&#10;  &#10;  <g
   id="_2099306310240">&#10;   <path
   class="fil1"
   d="m 1114.33,1602.81 c 0,-13.32 14.7,-15.64 25.65,-15.64 h 70.08 c 9.67,0 27.53,0.96 27.53,13.76 0,5.54 -0.14,9.1 -6.74,13.29 -3.32,2.1 -8.1,2.97 -13.29,2.97 h -79.46 c -5.96,0 -11.83,-0.7 -15.96,-2.79 -3.64,-1.85 -7.81,-6.44 -7.81,-11.59 z M 890.36,566.72 h 16.25 19.36 c 3.08,0.31 5.85,0.93 7.93,2.11 5.95,3.38 10.32,9.31 10.27,18.52 -0.21,38.45 0.61,77.56 0.61,115.77 l 0.01,87.59 c 0.02,5.27 -0.64,8.26 -0.65,13.77 -0.01,2.8 0.1,4.69 0.65,6.87 l 34.52,59.95 c 14.59,24.26 28.35,49.18 42.78,73.58 l 79.7,138.66 c 1.8,3.15 3.3,5.95 5.23,9.16 l 53.18,91.97 c 1.08,1.93 1.51,2.95 2.66,4.85 l 124.75,216.23 c 0.97,1.68 1.59,3.13 2.65,4.87 l 29.29,50.79 c 10.06,18.62 21.32,36.75 31.87,55.09 14.22,24.69 27.84,49.44 42.54,73.83 l 21.28,36.91 c 17.18,29.55 4.05,63.75 -29.35,71.94 -10.69,2.63 -42.68,1.23 -56.96,1.23 -19.39,0 -38.79,0 -58.18,0 -10.77,0 -49.51,1.03 -56.94,-0.61 l -74.45,-0.02 c -77.56,0.34 -155.19,0 -232.75,0 -77.86,0 -153.81,0.63 -231.74,0.63 -2.09,-1.47 -70.01,-2.14 -73.81,-0.63 -3.4,0 -3.76,-0.6 -7.25,-0.65 -16.52,-0.2 -33.92,0.66 -50.07,0.65 -19.41,0 -38.8,0 -58.19,0 -15.8,0 -44.45,1.38 -57.13,-1.06 -15.28,-2.94 -26.18,-12.34 -32.76,-25.43 -12.42,-24.65 1.44,-45.02 13.43,-64.98 l 53.19,-91.97 c 14.58,-24.25 28.54,-49.27 42.63,-73.74 l 63.88,-110.67 c 3.51,-6.13 7.32,-12.16 10.82,-18.59 l 37.21,-64.14 c 1.89,-3.12 3.35,-6.04 5.23,-9.16 l 66.72,-115.35 c 15.57,-25.71 29.62,-52.42 45.12,-78.12 1.84,-3.06 3.47,-5.85 5.26,-9.14 10.24,-18.75 21.87,-36.75 32.1,-55.49 l 37.33,-64.66 c 1.94,-3.22 3.4,-5.83 5.25,-9.14 l 5.31,-9.08 c 1.03,-1.71 1.65,-2.98 2.74,-4.77 l 39.88,-68.98 c 6.12,-10.21 7.31,-9.09 7.31,-22.09 V 643.67 c 0,-12.11 -0.86,-47.76 0.1,-56.83 1.68,-15.78 10.44,-19.42 21.19,-20.12 z M 625.07,1651.56 c -2.44,-3.97 -1.08,-29.87 -1,-36.44 -7.14,0.07 -32.33,1.47 -37.06,-1.05 -4.23,-1.84 -3.32,0.46 -7.17,-3.57 -5.95,-6.19 -4.6,-17.38 3.49,-21.27 6.23,-3 31.46,-1.44 41.11,-1.44 l 0.48,-14.2 c -0.7,-5.11 -1.45,-23.91 1.9,-28.47 4.02,-5.47 11.19,-7.06 16.6,-4.46 6.84,3.29 7.32,8.45 7.3,15.85 -0.01,4.48 -1.17,29 0.55,30.72 1.71,1.71 25.7,0.57 30.11,0.56 6.76,-0.01 8.68,-0.36 12.81,2.83 2.68,2.07 5.28,5.95 5.38,10.32 0.11,4.71 -2.36,8.65 -5.14,10.54 -7.93,5.4 -33.45,3.21 -43.71,3.21 0,7.41 0.61,12.92 0.63,20.65 0,4.45 -0.57,17.22 -1.7,20.21 -1.52,4.03 -7.73,8.18 -13.69,7.11 -6.14,-1.11 -10.89,-4.16 -10.89,-11.1 z m 335.35,-284 -13.9,7.38 c -11.27,6.15 -29.48,11.02 -42.45,11.98 -25.49,1.89 -46.06,-2.08 -66.01,-17.75 -1.99,-1.56 -4.05,-3.5 -5.9,-4.74 -1.74,3.64 -3.9,17.21 -4.84,22.06 -1.51,7.82 -2.9,15.75 -4.39,23.14 -3.13,15.6 -6.18,30.08 -9.27,45.78 -2.9,14.66 -10.87,25.9 -26.09,28.36 -17.3,2.79 -29.86,-6.69 -29.86,-23.61 0,-8.38 1.75,-15.78 3.28,-23 1.43,-6.76 3.28,-14.53 4.7,-21.58 2.95,-14.77 5.88,-29.45 8.75,-43.8 l 39.42,-197.08 c 1.49,-7.44 2.74,-14.59 4.66,-21.62 2.16,-7.9 4.15,-11.55 9.73,-16.55 10.86,-9.73 30.7,-10.86 41.46,3.9 7.87,10.78 -0.49,37.75 -2.57,48.14 -3.07,15.43 -18.08,83.96 -18.08,96.4 0,24.02 13.28,41.3 34.14,46.57 4.23,1.06 6.57,1.47 11.53,1.6 3.14,0.08 3.33,0.77 6.2,0.62 2.36,-0.12 3.04,-0.6 6.31,-0.61 13.8,-0.04 29.65,-6.29 40.55,-13.26 27.52,-17.59 28.37,-42.01 34.68,-73.55 l 13.35,-67.36 c 3.84,-19.17 4.29,-37.94 21.31,-46.27 9.86,-4.83 25.62,-4.02 32.59,4.15 10,11.72 6.1,23.63 3.35,36.8 l -32.22,160.48 c -4.8,24 -5.77,48.02 -35.04,50.69 -5.7,0.52 -12.62,-1.99 -16.28,-4.48 -5.5,-3.76 -6.12,-7.14 -9.11,-12.79 z"
   id="path1" />&#10;   <path
   class="fil1"
   d="m 1810.69,1293.11 c -14.59,0 -25.93,1.92 -34.9,-7.65 -4.6,-4.9 -5.14,-14.31 -5.14,-23.64 v -107.61 c 0,-23.11 14.52,-25.03 33.16,-25.03 28.93,0 50.84,0.42 72.67,18.05 28.95,23.39 36.55,69.62 20.76,101.04 -10.46,20.79 -23.85,33.31 -46.74,40.86 -10.16,3.34 -26.48,3.98 -39.81,3.98 z m 265.27,157.19 v 14.69 c -0.17,3.44 -0.46,6.24 -0.88,7.43 -0.74,2.11 -1.8,3.35 -3.11,5.01 -1.26,1.61 -2.54,2.42 -4.15,3.36 -7.25,4.2 -16.99,3.14 -28.14,3.14 -62.36,0 -124.71,0 -187.07,0 v 437.96 c 0,12.23 2.51,30.33 -12,34.93 -3.64,1.16 -25.12,1.24 -29.04,-0.15 -3.99,-1.42 -6.49,-4.03 -8.38,-7.26 -2.56,-4.42 -2.53,-6.34 -2.51,-13.13 v -452.35 c -62.99,0 -125.97,0 -188.95,0 -10.65,0 -21.2,0.81 -27.64,-3.64 -3.16,-2.17 -5.47,-5.23 -6.67,-8.98 -1.17,-3.69 -1.61,-24.34 0.91,-29.54 6.59,-13.58 22.01,-9.76 35.9,-9.77 h 187.7 c -0.26,-3.03 -16.42,-27.68 -18.42,-31.01 l -37.53,-61.32 c -18.12,-29.45 -38.98,-62.43 -56.47,-91.81 -3.17,-5.32 -6.48,-10.35 -9.56,-15.47 l -84.46,-137.02 c -8.03,-13.88 -3.48,-27.29 9.74,-30.87 10.71,-2.9 34.75,-1.01 47.17,-1.01 l 147.65,0.01 c 10.75,0.21 43.87,1.91 51.93,-0.48 6.62,-0.63 89.83,-0.15 98.86,-0.15 14.63,0 89.46,-1.17 97.49,1.36 5.38,1.69 11.04,6.64 12.66,12.36 2.45,8.68 -1.38,13.82 -4.39,18.84 -6.2,10.38 -12.42,20.34 -18.68,30.75 L 1851.35,1432 c 62.57,0 125.13,0 187.7,0 13.82,0 30.96,-3.39 36.03,10.89 0.42,1.19 0.71,3.98 0.88,7.41 z"
   id="path2" />&#10;   <path
   class="fil1"
   d="m 1800.05,1063.5 c 10.75,0.21 43.87,1.91 51.93,-0.48 0,-22.28 0.63,-42.54 0.63,-64.6 0,-21.9 0,-43.8 0,-65.69 0,-21.98 -0.63,-42.22 -0.63,-64.44 V 606.76 c 0,-12.5 3.56,-33.51 -10.06,-38.73 -2.3,-0.88 -4.71,-1.21 -7.33,-1.31 h -7.98 -0.28 -0.63 -2.37 c -11.24,0.02 -16.04,0.45 -20.78,8.76 -3.7,6.51 -2.5,19.91 -2.5,30.03 z"
   id="path3" />&#10;   <path
   class="fil1"
   d="m 1213.81,1699.8 -74.45,-0.02 c -1.56,3.26 -0.63,131.96 -0.63,147.03 0,24.61 0,49.22 0,73.83 0,13.83 -1.42,23.83 5.77,31.14 4.4,4.48 8.78,5.96 14.35,6.4 h 16.45 0.35 0.32 17.37 c 5.39,-0.42 9.93,-1.74 13.84,-5.39 l 3.95,-4.8 c 1.33,-2.43 1.63,-4.02 2.24,-7.15 1.18,-6.06 0.44,-226.95 0.44,-241.04 z"
   id="path4" />&#10;   <path
   class="fil1"
   d="m 674.87,1700.41 c -2.09,-1.47 -70.01,-2.14 -73.81,-0.63 -1.07,4.42 -0.4,63.97 -0.4,73.83 l -0.02,165.2 c 0.05,5.91 2.48,10.18 5.48,13.29 4.05,4.21 8.65,5.64 14.28,6.08 h 16.84 0.34 0.65 15.39 c 6.03,-0.35 11.05,-1.59 15.41,-5.47 7.67,-6.81 6.09,-17.04 6.09,-30.82 0,-18.62 -0.63,-195.63 0.45,-203.51 0.52,-3.77 -0.11,-14.18 -0.7,-17.97 z"
   id="path5" />&#10;   <path
   class="fil1"
   d="m 1950.21,900.82 v 34.41 h -35.66 c -13.73,0 -16.65,19.45 -6.66,25.42 7.18,4.29 31.79,2.74 42.32,2.74 v 33.78 c 0,19.5 27.53,17.4 27.53,0.62 v -34.4 c 11.18,0 34.89,1.67 42.54,-3.14 6.76,-4.25 8.34,-13.42 2.35,-20.48 -1.83,-2.14 -6.11,-4.54 -9.86,-4.54 h -35.03 v -35.04 c 0,-17.16 -27.53,-18.22 -27.53,0.63 z"
   id="path6" />&#10;   <path
   class="fil1"
   d="m 1812.56,1253.69 c 16.42,0 25.39,0.4 38.44,-9.74 5.57,-4.32 12.86,-15.22 12.86,-24.67 0,-15.03 1.03,-27.79 -12.03,-39.9 -11.88,-11.01 -24.21,-10.15 -39.27,-10.15 z"
   id="path7" />&#10;   <path
   class="fil1"
   d="m 1902.03,1563.39 c 0,10.57 6.61,16.89 16.27,16.89 h 92.59 c 17.47,0 24.49,-30.66 -5.62,-30.66 h -81.96 c -9.74,0 -21.28,4.52 -21.28,13.77 z"
   id="path8" />&#10;   <path
   class="fil1"
   d="m 625.07,1651.56 c 0,-9.54 1.13,-29.3 -0.63,-36.87 -7.65,-1.78 -27.76,-0.62 -37.43,-0.62 4.73,2.52 29.92,1.12 37.06,1.05 -0.08,6.57 -1.44,32.47 1,36.44 z"
   id="path9" />&#10;  </g>&#10; </g>&#10;</svg>
