<?xml version="1.0" encoding="UTF-8"?>
<!DOCTYPE svg PUBLIC "-//W3C//DTD SVG 1.1//EN" "http://www.w3.org/Graphics/SVG/1.1/DTD/svg11.dtd">
<!-- Creator: CorelDRAW 2021 (64-Bit) -->
<svg xmlns="http://www.w3.org/2000/svg" xml:space="preserve" width="759px" height="626px" version="1.1" style="shape-rendering:geometricPrecision; text-rendering:geometricPrecision; image-rendering:optimizeQuality; fill-rule:evenodd; clip-rule:evenodd"
viewBox="0 0 759 626.71"
 xmlns:xlink="http://www.w3.org/1999/xlink"
 xmlns:xodm="http://www.corel.com/coreldraw/odm/2003">
 <defs>
  <style type="text/css">
   <![CDATA[
    .fil0 {fill:#0F0F0F}
    .fil3 {fill:#B3B3B3}
    .fil2 {fill:#F4BF02}
    .fil1 {fill:#FE5353}
   ]]>
  </style>
 </defs>
 <g id="Layer_x0020_1">
  <metadata id="CorelCorpID_0Corel-Layer"/>
  <g id="_3153758318544">
   <path class="fil0" d="M325.88 466.65c0,-6 6.62,-7.04 11.55,-7.04l31.57 0c4.35,0 12.4,0.43 12.4,6.2 0,2.49 -0.06,4.1 -3.04,5.98 -1.49,0.95 -3.65,1.34 -5.98,1.34l-35.79 0c-2.69,0 -5.33,-0.31 -7.19,-1.26 -1.64,-0.83 -3.52,-2.89 -3.52,-5.22zm-100.88 -466.65l7.33 0 8.71 0c1.39,0.14 2.64,0.42 3.58,0.95 2.68,1.52 4.64,4.19 4.62,8.34 -0.09,17.32 0.28,34.94 0.28,52.14l0 39.46c0.01,2.37 -0.29,3.72 -0.29,6.2 -0.01,1.26 0.04,2.11 0.29,3.09l15.55 27c6.57,10.93 12.77,22.16 19.27,33.14l35.89 62.46c0.81,1.41 1.49,2.67 2.36,4.12l23.95 41.42c0.49,0.87 0.68,1.33 1.2,2.19l56.19 97.39c0.43,0.76 0.71,1.41 1.19,2.19l13.19 22.88c4.54,8.38 9.6,16.55 14.36,24.81 6.4,11.12 12.53,22.27 19.16,33.25l9.58 16.63c7.74,13.31 1.82,28.71 -13.22,32.4 -4.81,1.18 -19.22,0.55 -25.65,0.55 -8.74,0 -17.47,0 -26.21,0 -4.85,0 -22.29,0.47 -25.64,-0.27l-33.54 -0.01c-34.93,0.15 -69.89,0 -104.82,0 -35.07,0 -69.28,0.28 -104.38,0.28 -0.94,-0.66 -31.53,-0.96 -33.25,-0.28 -1.53,0 -1.69,-0.27 -3.26,-0.29 -7.44,-0.09 -15.28,0.29 -22.55,0.29 -8.74,0 -17.48,0 -26.21,0 -7.11,0 -20.02,0.62 -25.73,-0.48 -6.88,-1.32 -11.79,-5.56 -14.76,-11.45 -5.59,-11.1 0.65,-20.28 6.05,-29.27l23.96 -41.42c6.57,-10.92 12.86,-22.19 19.2,-33.21l28.77 -49.85c1.58,-2.76 3.3,-5.47 4.88,-8.37l16.75 -28.89c0.86,-1.41 1.51,-2.72 2.36,-4.13l30.05 -51.95c7.01,-11.58 13.34,-23.61 20.32,-35.19 0.83,-1.37 1.56,-2.63 2.37,-4.11 4.61,-8.45 9.85,-16.55 14.46,-24.99l16.81 -29.13c0.88,-1.45 1.53,-2.62 2.37,-4.12l2.39 -4.08c0.46,-0.78 0.74,-1.35 1.23,-2.15l17.96 -31.07c2.76,-4.6 3.3,-4.1 3.3,-9.95l0 -71.86c0,-5.46 -0.39,-21.51 0.04,-25.6 0.76,-7.1 4.7,-8.74 9.54,-9.06zm-119.48 488.61c-1.1,-1.79 -0.48,-13.45 -0.45,-16.41 -3.22,0.03 -14.56,0.66 -16.69,-0.47 -1.91,-0.83 -1.5,0.2 -3.23,-1.61 -2.68,-2.79 -2.08,-7.83 1.57,-9.58 2.81,-1.35 14.17,-0.65 18.52,-0.65l0.21 -6.39c-0.31,-2.31 -0.65,-10.77 0.86,-12.83 1.81,-2.46 5.04,-3.18 7.47,-2.01 3.08,1.48 3.3,3.81 3.29,7.14 0,2.02 -0.53,13.06 0.25,13.84 0.77,0.77 11.58,0.25 13.56,0.25 3.05,-0.01 3.91,-0.16 5.77,1.27 1.21,0.93 2.38,2.68 2.42,4.65 0.05,2.12 -1.06,3.9 -2.31,4.75 -3.57,2.43 -15.06,1.45 -19.69,1.45 0,3.33 0.28,5.81 0.29,9.3 0,2 -0.26,7.75 -0.77,9.1 -0.68,1.81 -3.48,3.68 -6.17,3.2 -2.76,-0.5 -4.9,-1.87 -4.9,-5zm151.04 -127.91l-6.26 3.32c-5.08,2.77 -13.28,4.96 -19.12,5.4 -11.48,0.85 -20.74,-0.94 -29.73,-8 -0.9,-0.7 -1.82,-1.57 -2.66,-2.13 -0.78,1.64 -1.76,7.75 -2.18,9.93 -0.68,3.52 -1.3,7.1 -1.97,10.43 -1.41,7.02 -2.79,13.54 -4.18,20.62 -1.3,6.6 -4.9,11.66 -11.75,12.77 -7.79,1.25 -13.45,-3.02 -13.45,-10.64 0,-3.77 0.79,-7.1 1.48,-10.36 0.64,-3.04 1.48,-6.54 2.11,-9.72 1.33,-6.65 2.66,-13.26 3.95,-19.72l17.75 -88.76c0.67,-3.35 1.24,-6.58 2.1,-9.74 0.97,-3.56 1.87,-5.2 4.38,-7.46 4.89,-4.38 13.83,-4.89 18.68,1.76 3.54,4.86 -0.23,17 -1.16,21.68 -1.39,6.95 -8.15,37.82 -8.15,43.42 0,10.82 5.98,18.6 15.38,20.97 1.9,0.48 2.96,0.67 5.2,0.73 1.41,0.03 1.49,0.34 2.79,0.28 1.06,-0.06 1.37,-0.28 2.84,-0.28 6.22,-0.02 13.35,-2.84 18.26,-5.97 12.4,-7.93 12.78,-18.92 15.62,-33.13l6.01 -30.34c1.73,-8.63 1.94,-17.09 9.6,-20.84 4.44,-2.18 11.54,-1.81 14.68,1.87 4.5,5.28 2.75,10.64 1.51,16.57l-14.51 72.28c-2.16,10.81 -2.6,21.64 -15.78,22.83 -2.57,0.24 -5.69,-0.89 -7.33,-2.01 -2.48,-1.69 -2.76,-3.22 -4.11,-5.76z"/>
   <path class="fil0" d="M639.52 327.17c-6.57,0 -11.68,0.86 -15.72,-3.45 -2.07,-2.21 -2.31,-6.45 -2.31,-10.65l0 -48.47c0,-10.4 6.54,-11.27 14.93,-11.27 13.03,0 22.9,0.19 32.73,8.13 13.04,10.54 16.47,31.36 9.35,45.51 -4.71,9.36 -10.74,15 -21.05,18.4 -4.57,1.51 -11.92,1.8 -17.93,1.8zm119.48 70.79l0 6.62c-0.08,1.55 -0.21,2.81 -0.4,3.34 -0.33,0.96 -0.81,1.52 -1.4,2.27 -0.57,0.72 -1.14,1.09 -1.87,1.51 -3.26,1.89 -7.65,1.41 -12.67,1.41 -28.09,0 -56.17,0 -84.26,0l0 197.26c0,5.51 1.14,13.66 -5.4,15.73 -1.64,0.52 -11.32,0.56 -13.08,-0.07 -1.8,-0.64 -2.93,-1.81 -3.77,-3.27 -1.16,-1.99 -1.15,-2.85 -1.14,-5.91l0 -203.74c-28.37,0 -56.73,0 -85.1,0 -4.8,0 -9.55,0.37 -12.45,-1.64 -1.42,-0.98 -2.46,-2.35 -3,-4.04 -0.53,-1.66 -0.73,-10.96 0.41,-13.31 2.97,-6.11 9.91,-4.39 16.17,-4.4l84.54 0c-0.12,-1.37 -7.4,-12.46 -8.3,-13.97l-16.9 -27.61c-8.16,-13.27 -17.56,-28.12 -25.44,-41.36 -1.42,-2.39 -2.91,-4.66 -4.3,-6.96l-38.05 -61.72c-3.61,-6.25 -1.56,-12.29 4.39,-13.9 4.83,-1.31 15.66,-0.46 21.25,-0.46l66.5 0.01c4.84,0.1 19.76,0.86 23.39,-0.22 2.98,-0.28 40.46,-0.07 44.52,-0.07 6.6,0 40.3,-0.52 43.91,0.62 2.43,0.76 4.98,2.99 5.71,5.56 1.1,3.91 -0.62,6.23 -1.98,8.49 -2.79,4.67 -5.59,9.16 -8.42,13.85l-84.02 137.74c28.18,0 56.35,0 84.53,0 6.23,0 13.95,-1.52 16.23,4.91 0.19,0.53 0.32,1.79 0.4,3.33z"/>
   <path class="fil1" d="M634.73 223.75c4.84,0.1 19.76,0.86 23.39,-0.22 0,-10.03 0.28,-19.16 0.28,-29.09 0,-9.86 0,-19.73 0,-29.59 0,-9.9 -0.28,-19.01 -0.28,-29.02l0 -117.8c0,-5.63 1.6,-15.09 -4.53,-17.44 -1.04,-0.4 -2.13,-0.54 -3.3,-0.59l-3.6 0 -0.12 0 -0.29 0 -1.07 0c-5.06,0.01 -7.22,0.2 -9.35,3.95 -1.67,2.93 -1.13,8.96 -1.13,13.52l0 206.28z"/>
   <path class="fil2" d="M370.69 510.34l-33.54 -0.01c-0.7,1.47 -0.28,59.44 -0.28,66.22 0,11.09 0,22.17 0,33.25 0,6.23 -0.64,10.74 2.6,14.03 1.98,2.02 3.96,2.69 6.46,2.88l7.41 0 0.16 0 0.14 0 7.83 0c2.42,-0.19 4.47,-0.78 6.23,-2.42l1.78 -2.17c0.6,-1.09 0.73,-1.81 1.01,-3.22 0.53,-2.73 0.2,-102.21 0.2,-108.56z"/>
   <path class="fil2" d="M127.95 510.61c-0.94,-0.66 -31.53,-0.96 -33.25,-0.28 -0.48,1.99 -0.17,28.81 -0.17,33.25l-0.01 74.41c0.02,2.66 1.11,4.58 2.46,5.99 1.83,1.89 3.9,2.54 6.44,2.73l7.58 0 0.16 0 0.29 0 6.93 0c2.72,-0.15 4.98,-0.71 6.94,-2.46 3.45,-3.07 2.74,-7.68 2.74,-13.88 0,-8.39 -0.28,-88.11 0.21,-91.66 0.23,-1.7 -0.06,-6.39 -0.32,-8.1z"/>
   <path class="fil1" d="M702.36 150.48l0 15.5 -16.06 0c-6.18,0 -7.5,8.76 -3,11.45 3.24,1.93 14.32,1.23 19.06,1.23l0 15.21c0,8.79 12.4,7.84 12.4,0.29l0 -15.5c5.04,0 15.71,0.75 19.16,-1.41 3.05,-1.92 3.76,-6.05 1.06,-9.23 -0.82,-0.96 -2.75,-2.04 -4.44,-2.04l-15.78 0 0 -15.78c0,-7.74 -12.4,-8.21 -12.4,0.28z"/>
   <path class="fil0" d="M640.37 309.41c7.39,0 11.43,0.18 17.31,-4.39 2.51,-1.94 5.79,-6.85 5.79,-11.11 0,-6.77 0.46,-12.51 -5.42,-17.97 -5.35,-4.96 -10.9,-4.57 -17.68,-4.57l0 38.04z"/>
   <path class="fil0" d="M680.66 448.9c0,4.76 2.98,7.61 7.33,7.61l41.7 0c7.87,0 11.03,-13.81 -2.53,-13.81l-36.92 0c-4.38,0 -9.58,2.03 -9.58,6.2z"/>
   <path class="fil3" d="M105.52 488.61c0,-4.3 0.51,-13.19 -0.28,-16.6 -3.45,-0.81 -12.51,-0.28 -16.86,-0.28 2.13,1.13 13.47,0.5 16.69,0.47 -0.03,2.96 -0.65,14.62 0.45,16.41z"/>
  </g>
 </g>
</svg>
